# xmcd
# 
# Track frame offsets:
#     150
#     56753
#     81284
#     116247
#     149558
#     170783
#     203011
#     233630
#     264832
#     286851
#     317088
# 
# Disc length: 4659
# 
# Revision: 4
# Processed by: cddbd v1.5.2PL0 Copyright (c) Steve Scherf et al.
# Submitted via: fre:ac v1.0.27
# 
DISCID=a112310b
DTITLE=John Coltrane - Traneing In
DYEAR=1957
DGENRE=Jazz
TTITLE0=Traneing In
TTITLE1=Slow Dance
TTITLE2=Bass Blues
TTITLE3=You Leave me Breathless
TTITLE4=Soft Lights And Sweet Music
TTITLE5=Dakar
TTITLE6=Mary's Blues
TTITLE7=Route 4
TTITLE8=Velvet Scene
TTITLE9=Witches' Pit
TTITLE10=Catwalk
EXTD=YEAR: 2010
EXTT0=
EXTT1=
EXTT2=
EXTT3=
EXTT4=
EXTT5=
EXTT6=
EXTT7=
EXTT8=
EXTT9=
EXTT10=
PLAYORDER=
